<svg xmlns="http://www.w3.org/2000/svg" width="662" height="42.09" viewBox="0 0 662 42.09"><defs><style>.a{fill:#ede9e3;}</style></defs><g transform="translate(0.004 -0.01)"><path class="a" d="M17.728,15.505c1.057.744,2.357.388,3.657.7,2.2.716,2.689,2.61,1.922,3.48A8.463,8.463,0,0,1,21.3,21.141,19.635,19.635,0,0,0,19.4,22.45c-.351.271-.547.65.22.444.08-.019,4.733-1.024,5.336-1.338,1.01-.524,1.3-.893,1.459-1.576s-.889-1.815-1.38-2.376a12.425,12.425,0,0,0-3.461-2.334,10.809,10.809,0,0,0-3.84-.009C17.611,15.257,17.658,15.454,17.728,15.505ZM8.052,30.3a7.024,7.024,0,0,1,.673.945A3.715,3.715,0,0,0,8.37,29.27a7.594,7.594,0,0,1-.963-2.39c-.239-1.02-.673-1.857.051-2.488a4.849,4.849,0,0,0,1.525-2.5,7.85,7.85,0,0,1,1.875-2.773,14.9,14.9,0,0,1,1.038-1.2,11.522,11.522,0,0,0-.8,1.988,20.777,20.777,0,0,1-1.562,2.568,8,8,0,0,0-1.478,3.251c-.08,1.235.94,2.713,1.09,3.246s-.2,2.077.168,3.166A5.939,5.939,0,0,0,10.9,34.381c.182.126.145,0,.08-.08a2.42,2.42,0,0,1-.43-.711,2.939,2.939,0,0,1,.037-1.9,6.661,6.661,0,0,0,.192-2.226,30.817,30.817,0,0,0-.9-2.961c-.192-.818.3-1.628,1.127-3.026a8.28,8.28,0,0,0,1.052-3.456,3.242,3.242,0,0,1,1.889-2.652,6.052,6.052,0,0,1,3.957.809,2.519,2.519,0,0,1,1.263,1.548c.131.645-.262,1.09-.505,1.726s-.416,1.366-.136,1.338A29.381,29.381,0,0,0,22.232,19.7a1.6,1.6,0,0,0,.136-2.011c-.519-.683-4.2-.992-4.911-1.978a2.46,2.46,0,0,0-2.741-.51,10.658,10.658,0,0,1-2.371,1.441,19.8,19.8,0,0,0-3.213,1.132,2.243,2.243,0,0,0-1.37,1.974,9.32,9.32,0,0,1-1.291,3.643c-1.057,1.6-.444,2.7.075,4.317A5.566,5.566,0,0,0,8.052,30.3Zm9.134-9.686c.281.393.028,1.614.332,1.581s1.342-2.049,1-2.741-2.8-1.5-3.213-1.529c-1.656-.1-2.147,1.23-2.343,2.287-.084.477-1.665,3.924-1.585,3.816l3.265-3.695A2.139,2.139,0,0,1,17.186,20.617Zm-2.161,8.858c-.023.187.159.019.309-.192s.73-1.165,1.66-2.778a14.539,14.539,0,0,0,1.445-3.035c-.056-.037-.2.1-.341.21a4.6,4.6,0,0,0-.716.73c-.257.323-.468.295-.79.355s-.912.711-1.258.982a2.956,2.956,0,0,1-1.216.608c-.454.075-.528-.126-.72-.094s-.187.355-.122.575.014.318-.023.711a1.328,1.328,0,0,0,.472,1c.229.22.164.566.309.683s.206-.673.206-1.165-.112-.968-.094-1.038.407-.178.589-.3.641-.44.861-.547.224-.028.168.1a1.467,1.467,0,0,1-.426.533,2.486,2.486,0,0,1-.973.388c-.131.009-.122.126.009.224a1.082,1.082,0,0,0,.748.028c.295-.08.257.3.22.706S15.053,29.293,15.025,29.475Zm7.539,11.435c-2.179,2.787-5.851,2.68-8.358,3.681a16.54,16.54,0,0,0-5.449,3.756,3.055,3.055,0,0,1-2.652.627,7.288,7.288,0,0,1-1.455-.393,3.961,3.961,0,0,0-.833.014.584.584,0,0,1,.229-.416,5.69,5.69,0,0,1,1.417-.337,4.744,4.744,0,0,0,1.665-.767c.309-.2.108-.262-.094-.215a11.525,11.525,0,0,1-1.889.444c-1.076.159-1.417.075-1.833.355s-.323.987-.416,1.183-.168.248-.309.122a1.247,1.247,0,0,1-.089-1c.108-.4.739-.72,1.319-.861a10.381,10.381,0,0,0,3.2-.94c4.018-2.133,5.79-3.737,9.345-6.478a51.934,51.934,0,0,1,9.812-5.813c1.637-.8,6.492-1.384,6.492-1.384a3.632,3.632,0,0,0-1.417-.552,9.705,9.705,0,0,0-1.267-.051,5.41,5.41,0,0,0,2.6-3.339c.327-2.245-2.642-4.092-2.685-6.132a5.337,5.337,0,0,0-4.644-5.28,5.064,5.064,0,0,1,1.983,2.24c.309,1.118-.636,2.343-2.025,2.806-.659.22-4.322,1.02-4.808,1.515s.514,3.077-.131,4.125-4.289,2.844-4.719,3.349a.985.985,0,0,1-1.048.337c-.15-.019-.028.187.416.276a3.032,3.032,0,0,0,1.66-.412c.444-.253,1.071.281,1.043.622s-.454.44-1.272.954c-.655.416-2.512-.744-2.666-1.132s.388-.257.725-.678-.248-.477-.463-.412-.341-.047-.557-.108a.666.666,0,0,0-.631.154c-.136.15,0,.276-.51.337s-.276-.557-.168-1.216a21.886,21.886,0,0,0,.449-2.642c-.08-.234-.1-.14-.281-.355s-.2-.6-.215-1.23.033-1.8.033-1.8a4.315,4.315,0,0,0-.557,1.567,2.322,2.322,0,0,0,.543,1.712,14.261,14.261,0,0,1-.323,2.292c-.309,1.768.075,2.109.463,2.418s2.109,1.2,2.109,1.2l-.033.8a7.983,7.983,0,0,0-1.66.8,2.971,2.971,0,0,0-1.174,1.768c-.061.309.108.262.108.262a9,9,0,0,1,.818-.692,5.731,5.731,0,0,1,2.179-.767c.173-.014.187.047-.033.2s-.786.566-2,1.473a3.19,3.19,0,0,0-1.384,2.31c0,.257.168.047.168.047a2.565,2.565,0,0,1,.585-.772,5.223,5.223,0,0,1,2.395-.786c1.043-.168,1.216-.43,1.539-.912A9.146,9.146,0,0,1,17.2,35.3c.187-.1.229-.042.122.028a6.269,6.269,0,0,0-.725.739,2.647,2.647,0,0,0-.645,1.31,4.453,4.453,0,0,1,.987-.893A11.728,11.728,0,0,1,19.7,35.364c.426-.108.4-.047.323.014a4.153,4.153,0,0,1-.6.323,41.315,41.315,0,0,0-4.364,2.876c-2.24,1.674-4.088,3.606-5.9,4.953a10.891,10.891,0,0,1-3.873,2.063A17.712,17.712,0,0,1,2.7,45.251a2.4,2.4,0,0,0-1.861.818c-.108.15-.108.29-.019.276s.262-.2.416-.2.14.094.14.094S1.3,46.27,1,46.42a2.247,2.247,0,0,0-.954,1.258,2.684,2.684,0,0,0,.29,1.637,2.2,2.2,0,0,1,.772.187,8.649,8.649,0,0,1,.954.43,1.047,1.047,0,0,0,.875.033,7.844,7.844,0,0,1,1.983-.094c.631.028,3.087.627,4.658-.4,4.925-4.326,10.084-3.957,11.936-4.607,3.8-1.38,3.171-6.506,9.85-5.734C31.076,38.4,25.852,36.72,22.564,40.911Zm6.585-9.667a6,6,0,0,0,1.787-3.695,6.781,6.781,0,0,1-1.169,4.34,12.678,12.678,0,0,0-1.576.178A4.265,4.265,0,0,0,29.149,31.243ZM28.4,26.477c1.179,2.025-.444,4.322-.8,4.654a6.386,6.386,0,0,1-1.281.79,4.721,4.721,0,0,0,1.548-2.432,5.013,5.013,0,0,0-.627-3.04c-.1-.21-1.889-2.848-2.049-3A8.7,8.7,0,0,1,28.4,26.477Zm-5.58-2.165c-.07-.168,1.908,3.578,1.52,5.229a9.029,9.029,0,0,1-2.97,4.429s1.122-2.147,1.291-2.526S23.949,27.156,22.821,24.312Zm-4.289,7.446c.744-.435,2.918-3.84,3-3.662a3.477,3.477,0,0,1-.037,1.787C21.175,30.752,18.533,31.758,18.533,31.758ZM1.27,48.094c-.126.3-.533-.178-.4-.519A1.509,1.509,0,0,1,2.5,46.616C2.8,46.682,1.668,47.117,1.27,48.094Z" transform="translate(0 -7.975)"/><g transform="translate(473.706 7.02)"><path class="a" d="M1022.85,15.05l-8.615.645a1.489,1.489,0,0,0-1.38,1.6l.4,5.271a7.429,7.429,0,0,1,6.725,7.712,7.454,7.454,0,0,1,7.8,10.378,7.22,7.22,0,0,1-.4.781,7.435,7.435,0,0,1,3.335,8.634c7.062-2.736,11.538-9.831,10.907-18.245C1040.852,21.523,1032.784,14.306,1022.85,15.05Z" transform="translate(-1012.852 -14.998)"/></g><path class="a" d="M766.442,37.137a18.17,18.17,0,0,0-26.939,15.5.472.472,0,0,0,.295.5,18.3,18.3,0,0,0,8.648,2.259,17.26,17.26,0,0,0,7.712-1.665c6.669-3.279,10.182-8.666,10.579-16.093A.485.485,0,0,0,766.442,37.137Zm-3.091,2.4A14.077,14.077,0,0,1,754.1,51.5a13.918,13.918,0,0,1-10.939-.309.38.38,0,0,1-.271-.482,14.465,14.465,0,0,1,2.025-5.982c.07-.117.145-.234.224-.346.009-.014.037-.019.089-.047a6.869,6.869,0,1,0,11.113-6.436c.173-.019.295-.037.421-.042a14.592,14.592,0,0,1,6.328,1.263C763.295,39.2,763.384,39.288,763.351,39.536Zm-16.023-4.452c6.169-3.54,12.59-3.648,19.138-.851a18.127,18.127,0,0,0-3.5-7.942c-1.076,1.179-2.133,2.343-3.222,3.536L756.728,25c-.912,1.7-1.8,3.339-2.694,5.014-1.384-1.338-2.722-2.624-4.1-3.952-.472,1.861-.926,3.667-1.394,5.509-1.665-.954-3.283-1.885-4.953-2.844v5.687c-1.824-.519-3.62-1.029-5.472-1.557.468,1.871.921,3.676,1.38,5.514l-5.7-.182c.912,1.7,1.791,3.344,2.685,5.014-1.59.346-3.129.673-4.686,1.01a18.173,18.173,0,0,0,5.154,6.987C737.824,44.11,741.154,38.624,747.328,35.084Z" transform="translate(-389.541 -13.302)"/><path class="a" d="M159.568,44.709c-.154-.519-.374-1.02-.575-1.525-1.239-3.11-2.488-6.22-3.714-9.34a1.4,1.4,0,0,1-.014-.875,23.106,23.106,0,0,0,.5-13.816,10.117,10.117,0,0,0-1.511-3.6c-.524-.692-1.057-.748-1.59-.08a7.884,7.884,0,0,0-1.113,1.871,21.672,21.672,0,0,0-1.436,7.839,27.41,27.41,0,0,0,1.67,9.5,1.814,1.814,0,0,1-.454,2c-3.835-1.829-7.235-.379-8.367,3.555-.033-.009-.075,0-.094-.023-1.071-1.207-2.184-2.385-3.2-3.643a7.863,7.863,0,0,1-1.347-2.254A2.907,2.907,0,0,1,141.1,30.5a13.323,13.323,0,0,1,1.875.178,3.917,3.917,0,0,0,3.251-.636,3.511,3.511,0,0,0-.028-5.3c-.182-.15-.36-.309-.529-.477a.965.965,0,0,1-.243-1.179A10.381,10.381,0,0,0,146,16.834c-.215-.921-.655-1.37-1.408-1.473a1.835,1.835,0,0,0-1.932,1.048,5.423,5.423,0,0,0-.449,1.707,10.048,10.048,0,0,0,.828,4.986,1.852,1.852,0,0,1-.281,2.133,6.815,6.815,0,0,1-.851.945c-.786.683-1.445.528-1.918-.4-.192-.379-.206-.6.262-.823a2.908,2.908,0,0,0,1.543-3.115,1.327,1.327,0,0,0-1.525-1.174,3.3,3.3,0,0,0-2.371,1.777,4.621,4.621,0,0,0,.94,4.878,2.444,2.444,0,0,0,3.091.271,6.013,6.013,0,0,0,2.212-2.516c.393.463.753.828,1.043,1.239a1.53,1.53,0,0,1,.023,1.646,1.187,1.187,0,0,1-1.249.608c-.253-.014-.51-.037-.762-.056a7.737,7.737,0,0,0-3.578.3,6.739,6.739,0,0,0-2.058,11.024c.7.645,1.431,1.263,2.128,1.913a4.471,4.471,0,0,1,1.258,1.754c-.267.112-.505.2-.725.313a19.345,19.345,0,0,0-2.053,1.122,4.317,4.317,0,0,0-1.8,2.343,2.024,2.024,0,0,0,1.314,2.619,3.409,3.409,0,0,0,1.5.145,6.433,6.433,0,0,0,4.046-2.46,4.923,4.923,0,0,0,1.085-2.338c.051-.29.07-.589.108-.917.323.206.585.393.87.543a5.547,5.547,0,0,0,6.019-.809,4.969,4.969,0,0,0,1.324-5.552,1.934,1.934,0,0,1-.009-.594l.187-.014c.065.15.131.3.2.454.837,1.768,1.609,3.564,2.535,5.28a8.228,8.228,0,0,0,1.7,1.941,1.606,1.606,0,0,0,1.688.262A.824.824,0,0,0,159.568,44.709Zm-18.984-22.95c.472.664-.042,1.791-1.09,2.32A1.758,1.758,0,0,1,140.584,21.759Zm4.125.454a10.972,10.972,0,0,1-1.057-4.808c.042-.613.365-1.094.692-1.062.575.061.622.575.706.987A10.3,10.3,0,0,1,144.709,22.212ZM139.84,47.463a1.911,1.911,0,0,1-1.632.426,4.82,4.82,0,0,1,2.666-2.549A2.333,2.333,0,0,1,139.84,47.463Zm7.843-4.976a2.073,2.073,0,0,1-.43-.159,2.955,2.955,0,0,1-1.066-3.391,2.367,2.367,0,0,1,2.633-1.459A2.339,2.339,0,0,1,150.6,40,2.314,2.314,0,0,1,147.683,42.487Zm6.328-11.594a45.49,45.49,0,0,1-.753-12.637l.257-.014A38.686,38.686,0,0,1,154.011,30.893Z" transform="translate(-72.143 -7.98)"/><path class="a" d="M635.993,35.291h0q-.007,7.121,0,14.246c0,.29-.047.538.411.538,4.247-.014,8.5,0,12.745,0,.945,0,.949-.023.949-.968q0-13.961,0-27.926a.924.924,0,0,0-.365-.8c-2.091-1.7-4.177-3.4-6.234-5.14-.337-.281-.519-.341-.875-.042-2.039,1.716-4.092,3.424-6.164,5.1a1.164,1.164,0,0,0-.472,1.029Q636,28.309,635.993,35.291Zm9.518-6.141c0-.159,0-.313.014-.472a.824.824,0,0,1,1.646.061c.014,1.431.009,2.858.014,4.289v2.119h0c0,2.091,0,4.177,0,6.267,0,.655-.393,1.02-.959.921a.745.745,0,0,1-.7-.748c-.019-.533-.023-1.066-.023-1.6Q645.506,34.571,645.511,29.151ZM642.2,35.132c0-2.091,0-4.181,0-6.272,0-.627.3-.949.851-.954a.793.793,0,0,1,.828.734c.028.313.014.627.014.945q0,5.732,0,11.463c0,.14,0,.285-.009.426a.843.843,0,0,1-.828.893.877.877,0,0,1-.87-.907C642.218,39.346,642.2,37.242,642.2,35.132Zm-3.293-6.4a.764.764,0,0,1,.557-.786.757.757,0,0,1,.949.309,1.42,1.42,0,0,1,.154.669c.009,2.072,0,4.148,0,6.22h0c0,2.1,0,4.209,0,6.314a.806.806,0,0,1-.673.889.753.753,0,0,1-.893-.444,1.942,1.942,0,0,1-.1-.776q-.014-4.476-.009-8.956C638.9,31.026,638.907,29.88,638.912,28.734Z" transform="translate(-338.539 -7.977)"/><path class="a" d="M509.648,30.238h0a8.758,8.758,0,0,0,1.632,4.883,6.491,6.491,0,0,0,5.383,2.512,6.881,6.881,0,0,0,2.876-.641,8,8,0,0,0,2.418-1.712,8.329,8.329,0,0,0,1.679-2.512,7.947,7.947,0,0,0,.631-2.535h8.344V29.148h-8.33a10.2,10.2,0,0,0-.43-2.535l7.362-3.087-.379-.907-7.315,3.068a9.425,9.425,0,0,0-1.333-2.264l5.028-5.1-.7-.688-4.981,5.056a8.505,8.505,0,0,0-2.189-1.6l2.184-5.383-.907-.369-2.175,5.36a8.015,8.015,0,0,0-2.53-.486V15h-.982v5.224a10.14,10.14,0,0,0-2.6.51L510.5,16.09l-.912.36L511.43,21.1a9.28,9.28,0,0,0-2.278,1.487l-3.428-3.6-.711.678,3.438,3.611a9.978,9.978,0,0,0-1.562,2.268l-4.12-1.861-.4.893,4.12,1.861c-.065.168-.131.341-.192.514a12.241,12.241,0,0,0-.524,2.2h-4.322a.079.079,0,0,0-.079.08V32.1a.079.079,0,0,0,.079.08l2.437.192h.014l.07,0a.6.6,0,0,1-.08,1.2H499.56a.079.079,0,0,0-.079.08v3.3a.079.079,0,0,0,.079.08h5.383a.561.561,0,1,1,0,1.122H499.56a.079.079,0,0,0-.079.08v3.3a.079.079,0,0,0,.079.08h2.474a11.25,11.25,0,0,1,3.625.7h0c.108.047.22.1.332.15h0c.042.023.084.042.126.061a13.308,13.308,0,0,1,4.5,3.737c3.148,3.5,5.28,3.788,6.969,3.788,1.16,0,5.926-.491,8.372-7.638,1.342-4.766,3.358-6.234,4.644-6.234a3.306,3.306,0,0,0-2.2-.884c-4.551-.229-5.561,5.182-11.912,5.182a9.735,9.735,0,0,1-9.686-10.205l-.014-.019a.13.13,0,0,1,0-.042h2.848Zm12.965,2.091a7.133,7.133,0,0,1-1.454,2.17,6.38,6.38,0,0,1-4.49,2.011,6.067,6.067,0,0,1-2.68-.571,5.068,5.068,0,0,1-1.81-1.5,7.65,7.65,0,0,1-1.4-4.2h2.381a3.753,3.753,0,0,0,1.3,2.54,3.542,3.542,0,0,0,2.193.833h.028a3.552,3.552,0,0,0,2.474-1.291,5.389,5.389,0,0,0,1.211-2.081h2.792A6.86,6.86,0,0,1,522.612,32.328Zm-9.19-3.83-1.969-.893a5.218,5.218,0,0,1,.524-.627Zm-.7-2.156c.2-.14.412-.271.622-.393l.711,1.8Zm-.239,2.811H510.8a3.436,3.436,0,0,1,.182-.678Zm6.136-2.109a4.73,4.73,0,0,1,.346.557l-1.525.641ZM516.7,27.6l.706-1.735a5.025,5.025,0,0,1,.566.444Zm2.614.921a2.981,2.981,0,0,1,.075.631H517.8Zm3.849.636h-2.647a3.9,3.9,0,0,0-.154-1.071l2.455-1.029A9.475,9.475,0,0,1,523.164,29.153Zm-.678-3.031-2.479,1.043a5.54,5.54,0,0,0-.589-.931l1.974-2.006A8.264,8.264,0,0,1,522.486,26.122Zm-3.568-3.994a7.475,7.475,0,0,1,1.829,1.361h0l-1.992,2.02a5.957,5.957,0,0,0-.921-.706Zm-3.007-.8a6.888,6.888,0,0,1,2.109.407l-1.071,2.638a4.105,4.105,0,0,0-.973-.239h-.061V21.323Zm0,3.933a3.138,3.138,0,0,1,.617.154l-.617,1.515Zm-.444,3.54a1.043,1.043,0,0,1,.79.285,1.787,1.787,0,0,1,.4,1.146v0h.094v.009h.468l.561.014v-.014h1.4c-.472,1.169-1.609,2.254-2.5,2.254h-.014a2.509,2.509,0,0,1-2.4-2.516,1.338,1.338,0,0,1,.3-.875A1.213,1.213,0,0,1,515.466,28.8Zm-1.221-3.25a5.449,5.449,0,0,1,.688-.2v1.927Zm.683-4.2V24.2a6.64,6.64,0,0,0-1.1.3l-1.08-2.727A9.049,9.049,0,0,1,514.928,21.347Zm-3.091.8,1.094,2.759a7.761,7.761,0,0,0-.987.622L509.919,23.4A8.261,8.261,0,0,1,511.837,22.142Zm-2.614,1.946,1.978,2.081a5.86,5.86,0,0,0-.79.973l-2.5-1.132A8.787,8.787,0,0,1,509.222,24.087Zm-1.866,3.227c.047-.14.1-.276.15-.416l2.451,1.108a4.647,4.647,0,0,0-.29,1.141H506.9A11.293,11.293,0,0,1,507.356,27.314Z" transform="translate(-265.876 -7.979)"/><path class="a" d="M907.251,32.252a17.551,17.551,0,1,0-17.44,17.829A17.554,17.554,0,0,0,907.251,32.252Zm-26.677-5.107a9.245,9.245,0,0,1,2.091-2.731,3.409,3.409,0,0,1,1.525-.842,1.477,1.477,0,0,1,1.445.43,6.3,6.3,0,0,1,1.469,2.61c.061.2.108.393.15.552a6.225,6.225,0,0,1,1.038-.192,4.205,4.205,0,0,1,3.461,1.483,12.052,12.052,0,0,1,1.922,3.381.542.542,0,0,0,.234.285c.15.089.295.192.44.29-.009.019-.014.042-.023.061-.346-.122-.706-.22-1.043-.365a6.677,6.677,0,0,0-2.184-.533c-.636-.042-1.272-.08-1.908-.1a2.3,2.3,0,0,0-.589.084c-.206.051-.225.1-.178.309.033.131-.056.192-.145.224a1.133,1.133,0,0,1-.384.1c-.561.014-1.118.023-1.679.014a5.682,5.682,0,0,1-.973-.108,1.621,1.621,0,0,1-.617-.267,1.656,1.656,0,0,0-1.006-.374,6.1,6.1,0,0,0-1.8.131,3.424,3.424,0,0,0-.8.384,2.76,2.76,0,0,1-1.936.257c-.126-.023-.285-.051-.22-.267.019-.051-.056-.136-.1-.234A29.38,29.38,0,0,1,880.573,27.145Zm-2.226,4.986c.037-.023.117-.033.14-.009a.238.238,0,0,1,.08.164c-.047.29,0,.4.3.416a9.225,9.225,0,0,0,1.193-.009,2.088,2.088,0,0,0,1.2-.477,2.157,2.157,0,0,1,1.141-.4,4.763,4.763,0,0,1,1.389.033,1.679,1.679,0,0,1,.889.412,1.927,1.927,0,0,0,1.071.449,10.237,10.237,0,0,0,2.17.131,4.067,4.067,0,0,0,.669-.108c.234-.056.3-.168.281-.412a.254.254,0,0,1,.22-.29,4.918,4.918,0,0,1,.818-.112,9.771,9.771,0,0,1,4.462.851,3.287,3.287,0,0,0,1.441.412.164.164,0,0,1,.075.028c.323.206.641.416.959.622,0,.019-.009.037-.014.061a4.142,4.142,0,0,1-.6-.145c-.6-.234-1.2-.472-1.8-.734a5.989,5.989,0,0,0-2.156-.566c-.767-.037-1.539-.033-2.31-.037a1.365,1.365,0,0,0-.407.08c-.178.056-.211.182-.108.337.164.239.136.365-.145.44a5.148,5.148,0,0,1-.959.168,10.416,10.416,0,0,1-2.32-.131,3.634,3.634,0,0,1-.734-.2,1.064,1.064,0,0,1-.374-.3,1.494,1.494,0,0,0-.72-.454,4.36,4.36,0,0,0-2.741.051.75.75,0,0,0-.332.21,1.72,1.72,0,0,1-1.151.566,4.256,4.256,0,0,1-1.356-.028c-.332-.065-.4-.168-.327-.491.042-.192-.117-.22-.234-.3C878.164,32.266,878.249,32.191,878.347,32.131Zm-.809.716c.122-.089.234,0,.332.07s.2.168.122.309a.256.256,0,0,0,.094.374,1.332,1.332,0,0,0,.51.22,4.123,4.123,0,0,0,1.964-.2.728.728,0,0,0,.355-.281,1.187,1.187,0,0,1,.758-.547,4.3,4.3,0,0,1,2.923.178,1.85,1.85,0,0,1,.505.341,2.9,2.9,0,0,0,1.23.692,8.6,8.6,0,0,0,2.951.262,2.813,2.813,0,0,0,.7-.15c.224-.07.374-.253.168-.524-.173-.229-.126-.365.159-.449a4.865,4.865,0,0,1,1.74-.2,9.455,9.455,0,0,1,3.709.945,10.139,10.139,0,0,0,1.838.758,4.22,4.22,0,0,0,.463.122,1.05,1.05,0,0,1,.571.271c.257.234.524.458.819.711a4.016,4.016,0,0,1-1.548-.543c-.388-.22-.762-.449-1.146-.678a5.144,5.144,0,0,0-1.539-.557,10.813,10.813,0,0,0-3.049-.3,5.8,5.8,0,0,0-1.09.2c-.285.075-.318.21-.126.444.36.444.108.622-.243.739a4.191,4.191,0,0,1-1.445.159,8.666,8.666,0,0,1-2.647-.5,2.949,2.949,0,0,1-1.258-.809,1.577,1.577,0,0,0-.655-.365,5.235,5.235,0,0,0-2.395-.341,5.047,5.047,0,0,0-1,.276.38.38,0,0,0-.224.224.983.983,0,0,1-.8.72,3.491,3.491,0,0,1-2.142-.042c-.365-.117-.444-.262-.416-.617.028-.309-.037-.388-.337-.468-.075-.019-.145-.033-.22-.051a.184.184,0,0,1-.037-.047A4.394,4.394,0,0,1,877.538,32.846Zm-.982,1.127a.157.157,0,0,1,.1-.075.593.593,0,0,1,.678.547c.047.631.159.8.758.945a4.144,4.144,0,0,0,2.2.023.722.722,0,0,0,.566-.6.7.7,0,0,1,.585-.608,5.6,5.6,0,0,1,3.077.154,4.4,4.4,0,0,1,1.31.893,3.936,3.936,0,0,0,1.557.818,10.3,10.3,0,0,0,3.372.505,2.083,2.083,0,0,0,.977-.224.354.354,0,0,0,.126-.58,1.318,1.318,0,0,1-.206-.393c-.061-.215.061-.384.295-.5a2.35,2.35,0,0,1,1.076-.159,14.143,14.143,0,0,1,3.587.622,9.034,9.034,0,0,1,2.437,1.225,4.417,4.417,0,0,0,1.333.585.385.385,0,0,1,.159.075c.365.341.72.692,1.08,1.038.014.014.023.033.052.07a2.583,2.583,0,0,1-.921-.458,8.821,8.821,0,0,0-4.214-1.754,16.975,16.975,0,0,0-2.872-.285,2.134,2.134,0,0,0-.678.136c-.327.117-.384.332-.2.627.1.154.206.3.295.463a.388.388,0,0,1-.122.589,1.6,1.6,0,0,1-.907.281A7.416,7.416,0,0,1,890.1,37.8c-.627-.136-1.254-.267-1.866-.449a4.735,4.735,0,0,1-2.161-1.464,2.686,2.686,0,0,0-1.1-.716,5.915,5.915,0,0,0-2.432-.365,5.343,5.343,0,0,0-.978.168.75.75,0,0,0-.6.683c-.042.524-.355.716-.8.786a5.035,5.035,0,0,1-2-.056,1.276,1.276,0,0,1-1.029-1.01c-.019-.08-.009-.168-.028-.248a.7.7,0,0,0-.538-.528c-.089-.028-.182-.047-.281-.07C876.373,34.338,876.462,34.156,876.556,33.973Zm25.139,5.673a15.289,15.289,0,0,0-3.166-.9,5.461,5.461,0,0,0-1.988,0,2.191,2.191,0,0,0-.627.248.492.492,0,0,0-.182.683,3.022,3.022,0,0,0,.29.4,4.793,4.793,0,0,1,.36.454.468.468,0,0,1-.108.617,1.519,1.519,0,0,1-.772.327,6.845,6.845,0,0,1-1.955.014,9.568,9.568,0,0,1-2.282-.552,10.167,10.167,0,0,1-3.213-1.866,8.022,8.022,0,0,0-2.918-1.7,4.442,4.442,0,0,0-2.745.061,1.561,1.561,0,0,0-.407.22.719.719,0,0,0-.262.585,1.468,1.468,0,0,0,0,.248.651.651,0,0,1-.571.8,3.449,3.449,0,0,1-1.45.075,10.921,10.921,0,0,1-1.291-.276,1.8,1.8,0,0,1-1.347-1.529,1.271,1.271,0,0,0-1.118-1.16l-.047-.014s-.009-.009-.023-.023c.08-.281.159-.566.239-.847a.994.994,0,0,1,1.048.926,1.332,1.332,0,0,0,.818,1.207,3.037,3.037,0,0,0,1.716.36,6.233,6.233,0,0,0,.889-.108c.482-.094.631-.29.631-.781a.754.754,0,0,1,.561-.818,4.2,4.2,0,0,1,2.189-.206,6.071,6.071,0,0,1,2.787,1.165,5.027,5.027,0,0,1,.725.688,4.045,4.045,0,0,0,1.876,1.151c.645.2,1.3.379,1.955.514a5.823,5.823,0,0,0,2.526.051,2.112,2.112,0,0,0,.636-.267.478.478,0,0,0,.145-.7c-.051-.084-.122-.159-.178-.239a4.27,4.27,0,0,1-.267-.379.4.4,0,0,1,.173-.58,2.071,2.071,0,0,1,.94-.234,10.663,10.663,0,0,1,4.354.744,10.274,10.274,0,0,1,2.8,1.422c.3.229.58.5.865.753a2.233,2.233,0,0,1,.187.224C902.859,40.124,902.284,39.876,901.694,39.647Zm-22.435-7.764a2.652,2.652,0,0,0,1.366.033,4.435,4.435,0,0,0,.837-.341,4.263,4.263,0,0,1,2.371-.337,1.825,1.825,0,0,1,.655.257,2.006,2.006,0,0,0,.879.323c.6.033,1.2.056,1.8.056a3.052,3.052,0,0,0,.674-.1.284.284,0,0,0,.187-.154c.089-.295.126-.36.43-.374.533-.023,1.062-.042,1.595-.033a7.2,7.2,0,0,1,2.236.449,3.035,3.035,0,0,0,1.076.248c0-.014,0-.033,0-.033-.084-.051-.168-.1-.257-.15a12.747,12.747,0,0,0-4.359-1.31c-.725-.1-1.455-.136-2.189-.173a22.37,22.37,0,0,0-3.358.108,12.651,12.651,0,0,0-2.731.528,5.365,5.365,0,0,0-1.347.631c-.117.08-.126.168-.037.257A.375.375,0,0,0,879.259,31.883Z" transform="translate(-464.249 -7.983)"/><path class="a" d="M402.384,26.879a5.486,5.486,0,0,0,1.487-2.175c.239-.716.5-1.431.678-2.161A19.263,19.263,0,0,0,404.877,16a23.042,23.042,0,0,0-1.628-6.754A15.242,15.242,0,0,0,399.9,4.229c-.248-.239-.51-.454-.767-.683.29-.449.2-.58-.3-.7a8.185,8.185,0,0,1-1.422-.51c-.51-.229-.992-.533-1.5-.767A19.551,19.551,0,0,0,390.121.206c-.6-.08-1.2-.131-1.8-.2h-1.885c-.15.023-.295.047-.444.065a6.331,6.331,0,0,0-3.77,1.445,7.889,7.889,0,0,0-2.512,6.2,5.936,5.936,0,0,0,.912,2.848,3.136,3.136,0,0,1,.262,2.591.63.63,0,0,0,.033.5c.07.089.309.037.482.047a.332.332,0,0,1-.037.089c-.192.3-.383.6-.585.893s-.122.5.211.571a3.686,3.686,0,0,0,.641.075c.337.014.673,0,.954,0-.187.617-.435,1.267-.575,1.941a3.55,3.55,0,0,0,.051,1.151.422.422,0,0,0,.309.262c.089.014.22-.131.3-.234a1.43,1.43,0,0,0,.154-.318c.14-.295.276-.589.416-.884.042.014.089.033.131.047-.112.435-.21.87-.341,1.3-.079.248-.019.4.215.486.08.028.164.042.234.061,0,.033.009.047,0,.051l-.1.126a3.007,3.007,0,0,0-.687,3.1,5.287,5.287,0,0,1,.159,1.31c.014.3.07.384.369.388a.33.33,0,0,1,.262.136,7.024,7.024,0,0,0,1.4,2.053.37.37,0,0,1,.051.327c-.117.267-.281.51-.416.767a8.244,8.244,0,0,0-.622,1.277,2.319,2.319,0,0,1-.641,1.094.3.3,0,0,0,0,.477.447.447,0,0,1,.094.327c-.094.9-.215,1.8-.309,2.708A3.3,3.3,0,0,1,382.413,35a.6.6,0,0,0-.117.43c.023.084.239.117.37.168.037.014.079.023.126.037,0,.1,0,.182-.014.271a5.959,5.959,0,0,1-2.086,3.844c-.122.1-.159.3-.239.454a1.531,1.531,0,0,0,.463.215c.968.089,1.941.164,2.909.215a12.352,12.352,0,0,0,2.2.037,15.023,15.023,0,0,0,6.234-2.586c.393-.257.379-.295.094-.683a3.728,3.728,0,0,1-.678-2.881c.416.014.538-.131.449-.505a2.8,2.8,0,0,1-.164-.655,10.381,10.381,0,0,1,.8-3.129A12.616,12.616,0,0,0,395.1,34.18a6.3,6.3,0,0,1,1.258,2.638,2.536,2.536,0,0,1-1.165,3.045c-.542.337-1.076.683-1.623,1.01-.388.234-.412.571-.019.8a3.281,3.281,0,0,0,.688.285,4.35,4.35,0,0,0,2.493-.084,2.637,2.637,0,0,1,1.3-.089,2.7,2.7,0,0,0,.514.051c1.263,0,2.53,0,3.793-.019a10.442,10.442,0,0,0,1.483-.112.794.794,0,0,0,.683-.945c-.108-.725-.206-1.459-.37-2.175a8.889,8.889,0,0,0-1.483-3.353,5.53,5.53,0,0,1-.683-3.891c.613-.037.669-.15.454-.711a3.111,3.111,0,0,1-.225-.907c-.042-.786-.047-1.576-.037-2.367A.849.849,0,0,1,402.384,26.879Zm-19.26-10.364c-.239.44-.44.9-.655,1.361-.033-.009-.065-.014-.1-.023a5.174,5.174,0,0,1,.145-.861c.22-.622.486-1.221.725-1.838a1.718,1.718,0,0,0,.051-.416,1.381,1.381,0,0,0-.393,0,3.7,3.7,0,0,1-1.632.122c.248-.458.5-.884.7-1.333a1.56,1.56,0,0,0,.14-.711.624.624,0,0,0-.309-.388c-.047-.028-.225.154-.346.243a6.738,6.738,0,0,0-.014-1.146,3.828,3.828,0,0,0-.384-1.057,6.356,6.356,0,0,1-.907-2.848A7.527,7.527,0,0,1,381.978,2.4,5.806,5.806,0,0,1,385.944.529a22.179,22.179,0,0,1,5.365.285,16.833,16.833,0,0,1,4.527,1.207,8.248,8.248,0,0,1,.954.477,4.645,4.645,0,0,0,1.773.762c.131.281.173.543.327.664A13.512,13.512,0,0,1,402.4,8.457a21.107,21.107,0,0,1,1.955,6.828.256.256,0,0,1-.051.2c-.051-.126-.108-.248-.154-.374a36.5,36.5,0,0,0-3.311-6.959,14.547,14.547,0,0,0-1.5-1.777c-.126-.136-.355-.384-.543-.136-.21.276.15.327.281.472A14,14,0,0,1,400.209,8a31.48,31.48,0,0,1,2.975,5.823c.21.5.388,1.01.585,1.511a1.435,1.435,0,0,0,.154.355,1.827,1.827,0,0,1,.239,1.726,7.712,7.712,0,0,1-1.1,2.647,6.077,6.077,0,0,1-1.927,1.726,5.385,5.385,0,0,0-1.936,1.623c-.042-.023-.075-.028-.075-.037-.122-.613-.215-.589-.762-.449a15.425,15.425,0,0,1-4.537.44.633.633,0,0,0-.622.341c-.585.842-1.221,1.646-1.838,2.465-.033-.014-.065-.033-.1-.047a.61.61,0,0,0,.023-.22c-.033-.122-.061-.281-.15-.346-.061-.042-.257.019-.327.094a4.5,4.5,0,0,1-1.866,1.066.267.267,0,0,1-.061,0,7.859,7.859,0,0,0-.1-1.052c-.037-.173-.178-.426-.313-.454-.276-.061-.4.192-.472.43-.023.07-.047.14-.07.215-.033.009-.066.014-.1.023a3.4,3.4,0,0,1-.22-.692,6.113,6.113,0,0,1,.43-2.572c.3-.865.659-1.712,1.006-2.563.164-.4.154-.468-.215-.706a2.443,2.443,0,0,1,1.221-.552.662.662,0,0,0,.561-.388,1.374,1.374,0,0,1,.664-.528,6.929,6.929,0,0,1,2.46-.514,29.166,29.166,0,0,1,4.99.164c.36.037.65-.164.617-.528a4.181,4.181,0,0,0-.295-1.342,6.86,6.86,0,0,0-.917-1.408,16.5,16.5,0,0,1-2.413-3.943c-.519-1.258-.992-2.535-1.5-3.8-.037-.089-.178-.136-.271-.2-.047.1-.159.239-.126.309a4.915,4.915,0,0,1,.154,1.4,2.059,2.059,0,0,1-.379,1.38c-.229.384-.22.412.117.7a5.244,5.244,0,0,1,1.469,1.96c-.407.042-.767.084-1.127.108-.393.028-.468.136-.365.514.178.655.337,1.319.519,2.03a2.82,2.82,0,0,0-.458-.061,16.7,16.7,0,0,0-1.745.089c-.594.08-.631.187-.454.79-.36-.023-.7-.042-1.038-.07s-.412.07-.337.412a1.335,1.335,0,0,1,.028.543c-.112.571-.257,1.137-.407,1.787-.276-.295-.51-.538-.739-.79-.14-.15-.257-.323-.407-.463-.2-.192-.4-.117-.477.15s-.159.524-.215.716c-.4-.257-.753-.505-1.132-.716-.253-.14-.449-.084-.585.229a2.648,2.648,0,0,1-2.647,1.375c.047-.683.1-1.356.136-2.034.009-.2,0-.449-.253-.449C383.372,16.206,383.194,16.375,383.124,16.515Zm8.835-1.352c.281-.042.538-.089.8-.112a2.907,2.907,0,0,1,1.529.178c.08.037.262.028.29-.023a.678.678,0,0,0,.094-.412c-.14-.669-.3-1.328-.458-1.992-.014-.051-.028-.1-.051-.2.187-.019.365-.033.543-.061a3.635,3.635,0,0,0,.631-.145c.313-.117.379-.309.243-.613a5.635,5.635,0,0,0-1.366-1.875c-.079-.07-.154-.145-.215-.2.168-.435.323-.842.5-1.281.187.449.379.889.547,1.338a17.849,17.849,0,0,0,2.273,4.1c.267.369.6.688.842,1.071a10.863,10.863,0,0,1,.725,1.436,2.436,2.436,0,0,1,.075.692c-.739-.051-1.422-.1-2.109-.14a17.592,17.592,0,0,0-4.752.215,3.5,3.5,0,0,0-1.74.818c.14-.716.271-1.366.407-2.039.248,0,.538.009.828,0C392.188,15.907,392.282,15.743,391.959,15.163Zm-2.867,2.918c-.285-.014-.491-.023-.744-.037.079-.187.14-.341.229-.557C388.755,17.7,388.9,17.857,389.092,18.082Zm-1.67-.164a.8.8,0,0,1-.033.1h-1.034c.108-.168.22-.337.36-.561C386.959,17.619,387.188,17.768,387.422,17.918Zm-3.162,6.87c-.126-.239-.248-.482-.36-.725s-.239-.486-.491-.5c-.131-.552-.234-1.066-.379-1.576a2.559,2.559,0,0,1,1.684-2.97,2.484,2.484,0,0,0,.608-.22,4.115,4.115,0,0,1,2.334-.281c.384.023.772,0,1.155,0,.1,0,.206.019.374.037a6.283,6.283,0,0,0-.547.379,1.853,1.853,0,0,0-.327.36c-.271.4-.187.58.267.617-.327.884-.678,1.768-.982,2.666a7.058,7.058,0,0,0-.416,2.811c-.075-.047-.112-.089-.154-.1-.108-.023-.267-.08-.313-.033a.406.406,0,0,0-.089.337,3.5,3.5,0,0,1-.019,1.646A12.36,12.36,0,0,1,384.261,24.789Zm17.571,5.266a3.583,3.583,0,0,0,.182.744c-.37.061-.435.332-.468.655a6.778,6.778,0,0,0,.229,2.89,5.679,5.679,0,0,0,.734,1.394,7.951,7.951,0,0,1,1.193,2.82c.164.669.253,1.361.365,2.039.084.519-.07.706-.585.73-.776.037-1.557.1-2.334.094-1.132-.009-2.268-.084-3.4-.112a3.269,3.269,0,0,0-.954.108,4.508,4.508,0,0,1-2.526.094,5.455,5.455,0,0,1-.51-.21c.2-.112.341-.182.472-.271.561-.388,1.127-.762,1.67-1.174a2.467,2.467,0,0,0,.992-2.451,6.867,6.867,0,0,0-1.412-3.466,26.432,26.432,0,0,1-1.773-2.633,11.586,11.586,0,0,1-.589-1.469c-.047-.112-.159-.271-.253-.276a.44.44,0,0,0-.36.187,10.894,10.894,0,0,0-.992,3.606,2.671,2.671,0,0,0,.079.538l-.079-.014a2.321,2.321,0,0,0-.257.561,4.225,4.225,0,0,0,.814,3.311c-.87.468-1.7.954-2.558,1.37a9.907,9.907,0,0,1-3.989,1.151,23.391,23.391,0,0,1-2.488-.164c-.613-.047-1.225-.1-1.9-.154.112-.112.187-.192.267-.271a6.365,6.365,0,0,0,1.857-4.074c.019-.267,0-.491-.416-.472.73-.917.594-1.983.744-2.989.089-.6.178-1.2.262-1.8a3.251,3.251,0,0,0-.014-.369.435.435,0,0,1,.028-.192c.145-.332.3-.659.454-.987.178-.369.351-.744.543-1.1.173-.323.369-.627.575-.973a2.771,2.771,0,0,1,.954,1.122c.037.108.2.267.262.253a.479.479,0,0,0,.295-.276c.094-.365.14-.744.192-1.062.2-.117.374-.224.58-.346.1.065.262.168.43.276.1-.154.2-.3.309-.486-.033.224-.07.444-.094.669-.009.112-.033.281.023.323a.418.418,0,0,0,.351.033c.659-.257,1.314-.533,1.983-.809a1.067,1.067,0,0,0-.079.295c0,.112.023.285.1.327s.238,0,.351-.033c.075-.028.126-.112.182-.182q1.158-1.459,2.32-2.918a.317.317,0,0,1,.2-.122c.809-.033,1.623-.014,2.427-.084s1.6-.229,2.413-.351a4.968,4.968,0,0,0,.234.561c.159.267.4.253.552-.019a3.626,3.626,0,0,1,1.422-1.426c.482-.281.945-.594,1.417-.9a3.448,3.448,0,0,1-.655,2.31,2.228,2.228,0,0,0-.131-.454.211.211,0,0,0-.412.089c-.014.393,0,.79.009,1.188,0,.2.22.281.384.126a3.936,3.936,0,0,0,.636-.73,4.611,4.611,0,0,0,.65-2.638.816.816,0,0,1,.229-.6,6.687,6.687,0,0,0,1.436-2.694c.028-.1.066-.2.089-.262,0,.72.042,1.459-.009,2.2a14.791,14.791,0,0,1-1.038,4.5A5.286,5.286,0,0,1,402,26.608a.721.721,0,0,0-.262.617C401.776,28.175,401.785,29.115,401.832,30.055ZM386.8,8a7.321,7.321,0,0,0,1.74-1.992c.168-.267.108-.407-.122-.585a5.37,5.37,0,0,0-3.484-1.211,7.966,7.966,0,0,0-1.057.136,5.234,5.234,0,0,0-3.232,2.671c-.547.954-.412.833.36,1.258A4.934,4.934,0,0,0,386.8,8Zm1.412-2.226c-.482.58-.935,1.132-1.394,1.684a.624.624,0,0,0-.089-.023,2.167,2.167,0,0,0-1.623-2.867A5.15,5.15,0,0,1,388.217,5.772Zm-5.453-.178a2.242,2.242,0,0,1,3.218-.019,1.557,1.557,0,0,1-.019,2.17,2.237,2.237,0,0,1-3.194-.033A1.543,1.543,0,0,1,382.764,5.594Zm-1.988,2.039c.374-.524.734-1.024,1.09-1.52l.084.028a2.2,2.2,0,0,0,1.122,2.409A5.719,5.719,0,0,1,380.776,7.633ZM381.155,5c.051-.019.079-.1.122-.145A4.737,4.737,0,0,1,384.7,3.12a7.209,7.209,0,0,1,3.569.772c.145.065.318.136.374-.065a.4.4,0,0,0-.2-.323,7.606,7.606,0,0,0-2.946-.837A5.562,5.562,0,0,0,381,4.5c-.061.075-.15.145-.168.234a.954.954,0,0,0,.037.318A1.872,1.872,0,0,0,381.155,5Zm7.736,3.091c.061-.061.014-.22.019-.337-.117.019-.262,0-.341.065-.374.309-.716.659-1.1.954a5.538,5.538,0,0,1-3.7,1.239,4.758,4.758,0,0,1-2.236-.7.427.427,0,0,0-.295-.033.228.228,0,0,0-.089.21.639.639,0,0,0,.243.243,5.338,5.338,0,0,0,2.787.734A6.817,6.817,0,0,0,388.891,8.092Zm2.077-.664c-.051-.1-.239-.234-.318-.21-.22.065-.131.253-.061.4.154.341.3.688.458,1.029-.019.014-.037.023-.056.037a3.4,3.4,0,0,0-.458-.407c-.079-.051-.224-.009-.337-.009a1.691,1.691,0,0,0,.047.313c.019.051.094.084.14.131a2.474,2.474,0,0,1,.94,1.5.24.24,0,0,0,.168.159.29.29,0,0,0,.229-.131,1.245,1.245,0,0,0,.065-.505A7.252,7.252,0,0,0,390.967,7.428Zm9.055,7.221c.047.117.112.224.168.337.094-.1.243-.178.271-.29a5.662,5.662,0,0,0,.239-1.267,11.1,11.1,0,0,0-.136-1.665c-.009-.075-.2-.131-.3-.192-.033.112-.117.239-.089.327a3.793,3.793,0,0,1,.065,1.773,3.921,3.921,0,0,0-.36-.589c-.089-.1-.285-.239-.36-.2-.229.1-.07.271-.009.43C399.695,13.751,399.854,14.2,400.022,14.649Zm-10.5-12.268c.079.061.206.056.309.094.491.178.978.36,1.469.543-.014.042-.023.084-.037.126-.211.023-.426.047-.636.075-.154.023-.337.07-.267.271.028.08.211.145.323.154.383.019.772,0,1.155.014.224,0,.318-.117.243-.3a1.261,1.261,0,0,0-.332-.463,4.827,4.827,0,0,0-2.119-.912c-.07-.019-.239.084-.239.131A.358.358,0,0,0,389.518,2.381Zm3.835,18.759c-.276.033-.543.1-.814.154-.014-.028-.023-.056-.037-.089.037-.051.094-.1.1-.15.009-.094.028-.239-.023-.281a.354.354,0,0,0-.285,0c-.243.1-.486.21-.72.332-.075.037-.187.122-.182.178a.323.323,0,0,0,.159.239,2.786,2.786,0,0,0,1.936.014c.094-.033.136-.2.206-.3A1.154,1.154,0,0,0,393.353,21.141Zm6.665,9.078a7.475,7.475,0,0,1-.3.879,6.91,6.91,0,0,1-1.754,1.918,3.612,3.612,0,0,0-.355-1.866c-.075-.15-.14-.36-.369-.243-.206.108-.094.271-.028.421a2.537,2.537,0,0,1,.145,2.161.318.318,0,0,0,.042.285.3.3,0,0,0,.281,0,7.829,7.829,0,0,0,2.46-2.54,3.5,3.5,0,0,0,.29-.982c.019-.084-.131-.2-.206-.3A1.431,1.431,0,0,0,400.017,30.219ZM388.662,31.7c-.089.276-.126.571-.21.847a4.149,4.149,0,0,1-1.473,2.226,2.537,2.537,0,0,0-.023-.276c-.122-.613-.239-1.225-.384-1.833-.019-.08-.182-.126-.276-.187a1.53,1.53,0,0,0-.122.29c-.014.065.042.145.051.215.1.627.2,1.253.29,1.88.023.168.047.337.065.505.178-.056.36-.108.533-.168a.715.715,0,0,0,.187-.122,4.908,4.908,0,0,0,1.763-3.316c.014-.075-.108-.173-.168-.262C388.821,31.566,388.69,31.612,388.662,31.7Zm8.709-5.884c-.215-.051-.248.145-.29.309a3.919,3.919,0,0,1-1.7,2.264c-.192-.6-.369-1.165-.557-1.726-.051-.159-.131-.346-.332-.224-.075.042-.094.262-.061.379.108.393.276.776.365,1.174a3.672,3.672,0,0,1,.014.753c0,.1-.023.234.028.281a.306.306,0,0,0,.285.019,4.5,4.5,0,0,0,2.381-2.806C397.548,26.065,397.609,25.864,397.37,25.813ZM401.3,38.2a1.359,1.359,0,0,0-.019.514c.056.435.136.87.21,1.3l-.051.028a7.81,7.81,0,0,0-.43-.673c-.056-.07-.192-.08-.295-.122-.033.094-.122.21-.094.271a2.448,2.448,0,0,0,1.235,1.352.327.327,0,0,0,.29-.019.352.352,0,0,0,.042-.29c-.065-.239-.192-.463-.234-.706-.1-.538-.154-1.085-.243-1.623a1.032,1.032,0,0,0-.178-.295C401.453,38.029,401.327,38.1,401.3,38.2Zm-1.239-6.038c-.234-.033-.229.164-.257.327-.084.454-.182.9-.262,1.3a2.6,2.6,0,0,0-.463-.089.344.344,0,0,0-.075.267.589.589,0,0,1,0,.613c-.033.061,0,.224.051.248a.318.318,0,0,0,.285-.014,1.986,1.986,0,0,0,.454-.622c.182-.538.3-1.1.435-1.651C400.27,32.384,400.293,32.192,400.064,32.16ZM390.7,27.824a1.223,1.223,0,0,0-.187.29c-.066.206-.1.421-.159.659-.075-.061-.1-.07-.108-.084-.07-.145-.126-.332-.341-.243s-.1.257-.08.416a2.941,2.941,0,0,1,.009.454c0,.108,0,.21.009.318.117-.009.267.023.351-.033a1.933,1.933,0,0,0,.337-.388,1.494,1.494,0,0,0,.4-1.094C390.916,28.006,390.78,27.918,390.7,27.824ZM395.008,15.3c.131.075.309.08.426.168.21.164.341.154.426-.1a1.236,1.236,0,0,0-.327-1.333c-.08-.075-.253-.051-.384-.075a1.49,1.49,0,0,0,.075.36c.084.182.2.355.337.6a1.964,1.964,0,0,0-.51-.033,1.033,1.033,0,0,0-.29.182A1.3,1.3,0,0,0,395.008,15.3ZM383.33,7.872a1.917,1.917,0,0,0,2.268-.126,1.359,1.359,0,0,0-.009-2.123,2.35,2.35,0,0,0-1.225-.5,5.424,5.424,0,0,0-1.01.379A1.365,1.365,0,0,0,383.33,7.872Z" transform="translate(-202.123)"/><path class="a" d="M279.789,55.317l-12.726,5.757-8.026-3.629h0l-4.724-2.137c-.023-.318-.028-.622-.028-.959a12.763,12.763,0,0,1,25.527,0c0,.346,0,.659-.023.968M274.345,61.8h-5.037l5.037-2.278Zm-14.587-2.287,5.056,2.287h-5.056ZM267.049,40A14.363,14.363,0,0,0,252.7,54.349a13.88,13.88,0,0,0,.07,1.52A.769.769,0,0,0,253,56.4h0a.779.779,0,0,0,.271.178l4.892,2.212v3.8a.789.789,0,0,0,.79.79h16.173a.793.793,0,0,0,.8-.79V58.8l4.939-2.231a.793.793,0,0,0,.463-.683,13.834,13.834,0,0,0,.07-1.543A14.361,14.361,0,0,0,267.049,40" transform="translate(-134.515 -21.287)"/><path class="a" d="M1145.581,76.917l-4.078-6.852h-1.333v9.162h1.333V72.376l4.078,6.852h1.333V70.065h-1.333Zm6.094-4.34c-1.913,0-2.722.949-2.722,3.18v.5c0,2.142.861,3.091,2.8,3.091a2.667,2.667,0,0,0,2.516-1.118l-.977-.575a1.57,1.57,0,0,1-1.412.655c-1.052,0-1.618-.627-1.618-1.81v-.229h4.13v-.514C1154.393,73.526,1153.588,72.577,1151.676,72.577Zm1.473,2.759h-2.886V75.22a2.176,2.176,0,0,1,.257-1.052,1.226,1.226,0,0,1,1.193-.575c.935,0,1.436.566,1.436,1.618ZM1162,77.558l-1.5-4.85h-.926l-1.5,4.85-1.272-4.85h-1.324l1.978,6.52h1.09l1.487-4.527,1.487,4.527h1.09l1.974-6.52h-1.324Zm9.045-3.017-2.1-4.476h-1.45l2.862,5.851v3.311h1.375V75.916l2.862-5.851h-1.45Zm6.571-1.964c-1.913,0-2.76.884-2.76,2.886v1c0,2,.847,2.886,2.76,2.886s2.745-.884,2.745-2.886v-1C1180.364,73.466,1179.517,72.577,1177.619,72.577Zm1.436,3.8c0,1.333-.435,1.927-1.45,1.927s-1.436-.589-1.436-1.927v-.823c0-1.333.435-1.927,1.436-1.927s1.45.589,1.45,1.927Zm4.322-3.12-.14-.552h-1.015v6.52h1.309V76.057c0-1.656.346-2.348,1.179-2.348a1.386,1.386,0,0,1,.884.332l.566-1.09a2.538,2.538,0,0,0-1.323-.374A1.654,1.654,0,0,0,1183.376,73.26Zm9.485-.552h-1.487l-2.605,3.377V70.065h-1.31v9.162h1.31V77.792l1.076-1.375,1.773,2.811h1.427l-2.4-3.76Zm4.041,6.52h1.375v-4h3.438V74.1h-3.437V71.2h4.069V70.07h-5.439v9.158Zm7.029,0h1.31v-6.52h-1.31Zm0-7.74h1.31V70h-1.31Zm4.682,5.43V70.065H1207.3v6.725c0,1.95.477,2.437,2.376,2.437h.332V78.161h-.281C1208.87,78.161,1208.613,77.867,1208.613,76.917Zm8.985-4.34a1.908,1.908,0,0,0-1.862.949,1.954,1.954,0,0,0-1.833-.949,1.781,1.781,0,0,0-1.642.772l-.1-.641h-1v6.52h1.31V75.879c0-1.576.346-2.179,1.23-2.179.847,0,1.169.538,1.169,1.936v3.592h1.31V75.842c0-1.525.346-2.142,1.221-2.142.832,0,1.169.552,1.169,1.927v3.606h1.31V75.5a5.315,5.315,0,0,0-.178-1.656A1.957,1.957,0,0,0,1217.6,72.577Zm7.081,6.651h1.375v-4h3.438V74.1h-3.438V71.2h4.069V70.07h-5.439v9.158ZM1234,72.577c-1.913,0-2.722.949-2.722,3.18v.5c0,2.142.861,3.091,2.8,3.091a2.667,2.667,0,0,0,2.516-1.118l-.977-.575a1.57,1.57,0,0,1-1.413.655c-1.052,0-1.618-.627-1.618-1.81v-.229h4.13v-.514C1236.726,73.526,1235.917,72.577,1234,72.577Zm1.478,2.759H1232.6V75.22a2.177,2.177,0,0,1,.257-1.052,1.226,1.226,0,0,1,1.193-.575c.935,0,1.436.566,1.436,1.618Zm7.212.552a3.587,3.587,0,0,0-1.824-.514,2.616,2.616,0,0,1-.926-.22.713.713,0,0,1-.36-.641c0-.575.4-.9,1.118-.9a1.526,1.526,0,0,1,1.384.669l.964-.566a2.638,2.638,0,0,0-2.451-1.141c-1.464,0-2.259.706-2.259,2a1.632,1.632,0,0,0,.538,1.324,2.944,2.944,0,0,0,1.628.524,3.178,3.178,0,0,1,1.127.229.708.708,0,0,1,.4.692c0,.641-.487.963-1.478.963a1.753,1.753,0,0,1-1.618-.669l-.949.589a2.853,2.853,0,0,0,2.619,1.118c1.8,0,2.671-.641,2.671-1.974A1.714,1.714,0,0,0,1242.694,75.888Zm3.859,1.029V73.76h1.281V72.708h-1.281V70.72h-1.244l-.066,1.988h-.758V73.76h.758v3.026c0,1.988.435,2.437,2.385,2.437h.229V78.147h-.206C1246.81,78.175,1246.553,77.867,1246.553,76.917Zm2.9,2.31h1.31v-6.52h-1.31Zm0-7.74h1.31V70h-1.31Zm5.673,6.108-1.59-4.887h-1.324l2.31,6.52h1.221l2.3-6.52h-1.324Zm6.618-5.018a2.943,2.943,0,0,0-2.465,1.038l.9.669a1.815,1.815,0,0,1,1.436-.655c.9,0,1.272.4,1.272,1.347v.374h-1.436c-1.847,0-2.465.514-2.465,2.016,0,1.464.6,1.988,2.245,1.988a2.274,2.274,0,0,0,1.833-.552l.089.426h1.038V75.2a3.244,3.244,0,0,0-.257-1.59A2.244,2.244,0,0,0,1261.743,72.577Zm1.141,4.546a1.31,1.31,0,0,1-.154.823c-.206.271-.566.384-1.179.384-.987,0-1.323-.243-1.323-.987,0-.772.374-1.066,1.361-1.066h1.3v.847Zm5.748,1.038c-.861,0-1.118-.295-1.118-1.244V70.065h-1.31v6.725c0,1.95.477,2.437,2.376,2.437h.332V78.161Z" transform="translate(-606.917 -37.256)"/></g></svg>