<svg xmlns="http://www.w3.org/2000/svg" width="64" height="64"><g data-name="Group 118"><path data-name="Rectangle 126" fill="none" stroke="#ece6de" stroke-miterlimit="10" stroke-width="1.5" d="M.75.75h62.5v62.5H.75z"/><path data-name="Path 39" d="M26.549 31.288h-.97a5.367 5.367 0 100-10.735H14.793v22.115h11.756a5.2 5.2 0 005.2-5.2v-.98a5.2 5.2 0 00-5.2-5.2m-7.317-6.721h4.981a2.683 2.683 0 110 5.367h-4.98zm5.661 14.378h-5.661v-5.369h5.661a2.685 2.685 0 010 5.369m24.315-3.909a7.865 7.865 0 10-7.845 8.411 7.891 7.891 0 007.358-5.515h-4.085a4.125 4.125 0 01-3.273 1.672 4.318 4.318 0 01-4.1-3.343h11.85a9 9 0 00.092-1.225m-11.548-2.393a4.175 4.175 0 017.405 0zm8.6-10.846H35.593v2.77h10.664z" fill="#ece6de"/></g></svg>