<svg height="64" width="64" xmlns="http://www.w3.org/2000/svg"><path d="m.75.75h62.5v62.5h-62.5z" fill="none" stroke="#ece6de" stroke-miterlimit="10" stroke-width="1.5"/><path d="m26.549 31.288h-.97a5.367 5.367 0 1 0 0-10.735h-10.786v22.115h11.756a5.2 5.2 0 0 0 5.2-5.2v-.98a5.2 5.2 0 0 0 -5.2-5.2m-7.317-6.721h4.981a2.683 2.683 0 1 1 0 5.367h-4.98zm5.661 14.378h-5.661v-5.369h5.661a2.685 2.685 0 0 1 0 5.369m24.315-3.909a7.865 7.865 0 1 0 -7.845 8.411 7.891 7.891 0 0 0 7.358-5.515h-4.085a4.125 4.125 0 0 1 -3.273 1.672 4.318 4.318 0 0 1 -4.1-3.343h11.85a9 9 0 0 0 .092-1.225m-11.548-2.393a4.175 4.175 0 0 1 7.405 0zm8.6-10.846h-10.664v2.77h10.664z" fill="#ece6de"/></svg>