<svg xmlns="http://www.w3.org/2000/svg" viewBox="0 0 825 229"><path d="M217.59 110.68c12.5-11.71 20.32-28.36 20.32-46.84 0-35.44-28.73-64.17-64.17-64.17H-.42v229.17h183.33c35.44 0 64.17-28.73 64.17-64.17 0-22.66-11.75-42.57-29.49-53.99zM91.24 68.42h48.12c6.33 0 11.46 5.13 11.46 11.46 0 6.33-5.13 11.46-11.46 11.46H91.24V68.42zm68.75 80.21c0 6.33-5.13 11.46-11.46 11.46H91.24v-22.92h57.29c6.33 0 11.46 5.13 11.46 11.46zM256.24-.33h91.67v229.17h-91.67zm100.84 0v73.34h68.75v155.83h91.66V73.01h68.75V-.33zm238.33 0v73.34h68.75v155.83h91.67V73.01h68.75V-.33zm181.04 206.25c-6.33 0-11.46 5.13-11.46 11.46 0 6.33 5.13 11.46 11.46 11.46 6.33 0 11.46-5.13 11.46-11.46 0-6.33-5.13-11.46-11.46-11.46zm0 20.06c-4.75 0-8.59-3.85-8.59-8.59 0-4.75 3.85-8.59 8.59-8.59s8.59 3.85 8.59 8.59c.01 4.74-3.84 8.59-8.59 8.59zm4.03-6.63c-.05-1-.45-1.65-1.18-1.97.97-.42 1.46-1.19 1.46-2.32 0-.92-.32-1.63-.96-2.12-.64-.5-1.51-.75-2.61-.75h-4.37v10.03h1.97v-3.89h2.44c.47 0 .8.1.98.3.18.2.3.57.35 1.12l.08 1.02c.03.65.16 1.14.39 1.45h2.04c-.29-.39-.45-.88-.47-1.45l-.12-1.42zm-3.26-2.71h-2.44v-2.67h2.32c1.07 0 1.61.45 1.61 1.34 0 .88-.5 1.33-1.49 1.33z" fill="#ede9e3"/></svg>