<?xml version="1.0" encoding="utf-8"?>
<!-- Generator: Adobe Illustrator 24.0.1, SVG Export Plug-In . SVG Version: 6.00 Build 0)  -->
<svg version="1.1" id="Layer_1" xmlns="http://www.w3.org/2000/svg" xmlns:xlink="http://www.w3.org/1999/xlink" x="0px" y="0px"
	 viewBox="0 0 825 229" style="enable-background:new 0 0 825 229;" xml:space="preserve">
<style type="text/css">
	.st0{fill:#EDE9E3;}
</style>
<g>
	<path class="st0" d="M217.59,110.68c12.5-11.71,20.32-28.36,20.32-46.84v0c0-35.44-28.73-64.17-64.17-64.17H-0.42v229.17l183.33,0
		v0c35.44,0,64.17-28.73,64.17-64.17v0C247.08,142.01,235.33,122.1,217.59,110.68z M91.24,68.42h48.12
		c6.33,0,11.46,5.13,11.46,11.46v0c0,6.33-5.13,11.46-11.46,11.46H91.24V68.42z M159.99,148.63c0,6.33-5.13,11.46-11.46,11.46H91.24
		v-22.92h57.29C154.86,137.17,159.99,142.3,159.99,148.63L159.99,148.63z"/>
	<rect x="256.24" y="-0.33" class="st0" width="91.67" height="229.17"/>
	<polygon class="st0" points="357.08,-0.33 357.08,73.01 425.83,73.01 425.83,228.84 517.49,228.84 517.49,73.01 586.24,73.01 
		586.24,-0.33 	"/>
	<polygon class="st0" points="595.41,-0.33 595.41,73.01 664.16,73.01 664.16,228.84 755.83,228.84 755.83,73.01 824.58,73.01 
		824.58,-0.33 	"/>
	<path class="st0" d="M776.45,205.92c-6.33,0-11.46,5.13-11.46,11.46c0,6.33,5.13,11.46,11.46,11.46c6.33,0,11.46-5.13,11.46-11.46
		C787.91,211.05,782.78,205.92,776.45,205.92z M776.45,225.98c-4.75,0-8.59-3.85-8.59-8.59c0-4.75,3.85-8.59,8.59-8.59
		s8.59,3.85,8.59,8.59C785.05,222.13,781.2,225.98,776.45,225.98z M780.48,219.35c-0.05-1-0.45-1.65-1.18-1.97
		c0.97-0.42,1.46-1.19,1.46-2.32c0-0.92-0.32-1.63-0.96-2.12c-0.64-0.5-1.51-0.75-2.61-0.75h-4.37v10.03h1.97v-3.89h2.44
		c0.47,0,0.8,0.1,0.98,0.3c0.18,0.2,0.3,0.57,0.35,1.12l0.08,1.02c0.03,0.65,0.16,1.14,0.39,1.45h2.04
		c-0.29-0.39-0.45-0.88-0.47-1.45L780.48,219.35z M777.22,216.64h-2.44v-2.67h2.32c1.07,0,1.61,0.45,1.61,1.34
		C778.71,216.19,778.21,216.64,777.22,216.64z"/>
</g>
</svg>
