<svg xmlns="http://www.w3.org/2000/svg" width="251.5" height="251.5" viewBox="0 0 251.5 251.5">
  <path id="about-cristianmorales" d="M1901.876,8013.2h250v-250h-250Zm100.705-166.974A40.154,40.154,0,0,1,1984.9,7863.9l-18.027-18.027L1948.85,7863.9a40.153,40.153,0,0,1-17.678-17.678L1949.2,7828.2l-18.027-18.028a40.115,40.115,0,0,1,7.418-10.255l.005,0a40.04,40.04,0,0,1,10.255-7.418l18.026,18.027,18.027-18.027a40.091,40.091,0,0,1,10.257,7.418l0,0a40.154,40.154,0,0,1,7.419,10.256l-18.027,18.028Zm120,0A40.153,40.153,0,0,1,2104.9,7863.9l-18.027-18.027L2068.85,7863.9a40.152,40.152,0,0,1-17.678-17.678L2069.2,7828.2l-18.027-18.028a40.121,40.121,0,0,1,7.419-10.256l0,0a40.106,40.106,0,0,1,10.257-7.418l18.026,18.027,18.027-18.027a40.075,40.075,0,0,1,10.255,7.418l.005,0a40.142,40.142,0,0,1,7.418,10.255l-18.027,18.028Z" transform="translate(-1901.126 -7762.447)" fill="none" stroke="#ece6de" stroke-miterlimit="10" stroke-width="1.5"/>
</svg>
