<svg xmlns="http://www.w3.org/2000/svg" width="251.5" height="251.5"><path d="M.75 250.753h250v-250H.75zM101.455 83.779a40.154 40.154 0 01-17.681 17.674L65.747 83.426l-18.023 18.027a40.153 40.153 0 01-17.678-17.678l18.028-18.022-18.027-18.028a40.115 40.115 0 017.418-10.255h.005a40.04 40.04 0 0110.255-7.418l18.026 18.027 18.027-18.027a40.091 40.091 0 0110.257 7.418h0a40.154 40.154 0 017.419 10.256L83.427 65.754zm120 0a40.153 40.153 0 01-17.681 17.674l-18.027-18.027-18.023 18.027a40.152 40.152 0 01-17.678-17.678l18.028-18.022-18.027-18.028a40.121 40.121 0 017.419-10.256h0a40.106 40.106 0 0110.257-7.418l18.026 18.027 18.027-18.027a40.075 40.075 0 0110.255 7.418h.005a40.142 40.142 0 017.418 10.255l-18.027 18.028z" fill="none" stroke="#ece6de" stroke-miterlimit="10" stroke-width="1.5"/></svg>