<svg xmlns="http://www.w3.org/2000/svg" width="201.695" height="201.695" viewBox="0 0 201.695 201.695"><defs><style>.a{fill:none;stroke:#b3afa8;stroke-miterlimit:10;stroke-width:1.5px;}</style></defs><path class="a" d="M.75,270.75v200.2h200.2V270.75Zm80.639,66.489A32.14,32.14,0,0,1,67.231,351.4L52.793,336.959,38.355,351.4A32.14,32.14,0,0,1,24.2,337.239L38.635,322.8,24.2,308.363a31.97,31.97,0,0,1,5.942-8.208h0a32.25,32.25,0,0,1,8.208-5.942l14.438,14.438,14.438-14.438a32.149,32.149,0,0,1,8.216,5.942h0a32.15,32.15,0,0,1,5.942,8.216L66.943,322.809Zm96.094,0A32.14,32.14,0,0,1,163.325,351.4l-14.438-14.438L134.448,351.4a32.14,32.14,0,0,1-14.158-14.158L134.729,322.8l-14.438-14.438a32.15,32.15,0,0,1,5.942-8.216h0a32.152,32.152,0,0,1,8.216-5.942l14.438,14.438L163.325,294.2a31.97,31.97,0,0,1,8.208,5.942h0a32.248,32.248,0,0,1,5.942,8.208l-14.438,14.438Z" transform="translate(0 -270)"/></svg>