<svg xmlns="http://www.w3.org/2000/svg" width="64" height="64"><g data-name="Group 117"><path data-name="Rectangle 128" fill="none" stroke="#ece6de" stroke-miterlimit="10" stroke-width="1.5" d="M.75.75h62.5v62.5H.75z"/><path data-name="Path 41" d="M40.341 15.498l-4.865-.108a7.131 7.131 0 00-7.289 7.129v4.614h-4.52a.337.337 0 00-.337.337v5.8a.337.337 0 00.337.335h4.52v14.671a.336.336 0 00.337.337h5.986a.336.336 0 00.337-.337V33.605h4.558a.336.336 0 00.333-.293l.754-5.8a.335.335 0 00-.334-.38h-5.311v-2.933a3.343 3.343 0 01.618-2.236 1.826 1.826 0 011.432-.559h3.439a.336.336 0 00.336-.336v-5.234a.338.338 0 00-.329-.337" fill="#ece6de"/></g></svg>