<svg height="64" width="64" xmlns="http://www.w3.org/2000/svg"><path d="m.75.75h62.5v62.5h-62.5z" fill="none" stroke="#ece6de" stroke-miterlimit="10" stroke-width="1.5"/><path d="m40.341 15.498-4.865-.108a7.131 7.131 0 0 0 -7.289 7.129v4.614h-4.52a.337.337 0 0 0 -.337.337v5.8a.337.337 0 0 0 .337.335h4.52v14.671a.336.336 0 0 0 .337.337h5.986a.336.336 0 0 0 .337-.337v-14.671h4.558a.336.336 0 0 0 .333-.293l.754-5.8a.335.335 0 0 0 -.334-.38h-5.311v-2.933a3.343 3.343 0 0 1 .618-2.236 1.826 1.826 0 0 1 1.432-.559h3.439a.336.336 0 0 0 .336-.336v-5.234a.338.338 0 0 0 -.329-.337" fill="#ece6de"/></svg>