<svg xmlns="http://www.w3.org/2000/svg" width="64" height="64" viewBox="0 0 64 64">
  <g id="Group_117" data-name="Group 117" transform="translate(-884.412 -4416.751)">
    <rect id="Rectangle_128" data-name="Rectangle 128" width="62.5" height="62.5" transform="translate(885.162 4417.501)" fill="none" stroke="#ece6de" stroke-miterlimit="10" stroke-width="1.5"/>
    <path id="Path_41" data-name="Path 41" d="M2726.628,6165.445l-4.865-.108a7.131,7.131,0,0,0-7.289,7.129v4.614h-4.52a.337.337,0,0,0-.337.337v5.8a.337.337,0,0,0,.337.335h4.52v14.671a.336.336,0,0,0,.337.337h5.986a.336.336,0,0,0,.337-.337v-14.671h4.558a.336.336,0,0,0,.333-.293l.754-5.8a.335.335,0,0,0-.334-.38h-5.311l0-2.933a3.343,3.343,0,0,1,.618-2.236,1.826,1.826,0,0,1,1.432-.559h3.439a.336.336,0,0,0,.336-.336v-5.234a.338.338,0,0,0-.329-.337" transform="translate(-1801.875 -1733.196)" fill="#ece6de"/>
  </g>
</svg>
