<svg xmlns="http://www.w3.org/2000/svg" width="201.695" height="201.695" viewBox="0 0 201.695 201.695"><defs><style>.a{fill:none;stroke:#b3afa8;stroke-miterlimit:10;stroke-width:1.5px;}</style></defs><path class="a" d="M810.75,540.75v200.2h200.2V540.75ZM862.8,624.832A32.031,32.031,0,1,1,894.832,592.8,32.033,32.033,0,0,1,862.8,624.832Zm124.682-17.593A32.139,32.139,0,0,1,973.325,621.4l-14.438-14.438L944.448,621.4a32.14,32.14,0,0,1-14.158-14.158L944.729,592.8l-14.438-14.438a32.153,32.153,0,0,1,5.942-8.216h0a32.151,32.151,0,0,1,8.216-5.942l14.438,14.438L973.325,564.2a31.973,31.973,0,0,1,8.208,5.942l.008.008a32.248,32.248,0,0,1,5.942,8.208L973.044,592.8Z" transform="translate(-810 -540)"/></svg>