<svg xmlns="http://www.w3.org/2000/svg" width="235" height="62.5"><path d="M72.5 62.504h25V.004h-25zm30-42.5h18.75v42.5h25v-42.5H165v-20h-62.5zm130-20H170v20h18.75v42.5h25v-42.5h18.75zm-5 47.5a7.5 7.5 0 107.5 7.5 7.5 7.5 0 00-7.5-7.5m0 13.127a5.626 5.626 0 115.625-5.627 5.626 5.626 0 01-5.625 5.627m2.636-4.336a1.335 1.335 0 00-.773-1.287 1.513 1.513 0 00.953-1.519 1.659 1.659 0 00-.63-1.39 2.726 2.726 0 00-1.712-.489h-2.857v6.563h1.287v-2.549h1.6a.864.864 0 01.644.193 1.3 1.3 0 01.231.734l.051.67a1.7 1.7 0 00.258.951h1.338a1.7 1.7 0 01-.309-.951zM228 54.519h-1.6v-1.75h1.519q1.054 0 1.055.875t-.978.875M59.449 30.281A17.5 17.5 0 0047.496.005h-47.5v62.5h50a17.5 17.5 0 009.453-32.224M24.996 18.755h13.128a3.125 3.125 0 010 6.25H24.999zm15.625 25H24.996v-6.25h15.628a3.125 3.125 0 010 6.25" fill="#ece6de"/></svg>