<svg xmlns="http://www.w3.org/2000/svg" width="235" height="62.5" viewBox="0 0 235 62.5">
  <path id="BITT-footerlogo" d="M1974.376,10203.2h25v-62.5h-25Zm30-42.5h18.75v42.5h25v-42.5h18.75v-20h-62.5Zm130-20h-62.5v20h18.75v42.5h25v-42.5h18.75Zm-5,47.5a7.5,7.5,0,1,0,7.5,7.5,7.5,7.5,0,0,0-7.5-7.5m0,13.127a5.626,5.626,0,1,1,5.625-5.627,5.626,5.626,0,0,1-5.625,5.627m2.636-4.336a1.335,1.335,0,0,0-.773-1.287,1.513,1.513,0,0,0,.953-1.519,1.659,1.659,0,0,0-.63-1.39,2.726,2.726,0,0,0-1.712-.489h-2.857v6.563h1.287v-2.549h1.6a.864.864,0,0,1,.644.193,1.3,1.3,0,0,1,.231.734l.051.67a1.7,1.7,0,0,0,.258.951h1.338a1.7,1.7,0,0,1-.309-.951Zm-2.136-1.776h-1.6v-1.75h1.519q1.054,0,1.055.875t-.978.875m-168.547-24.238a17.5,17.5,0,0,0-11.953-30.276h-47.5v62.5h50a17.5,17.5,0,0,0,9.453-32.224m-34.453-11.526H1940a3.125,3.125,0,0,1,0,6.25h-13.125Zm15.625,25h-15.625v-6.25H1942.5a3.125,3.125,0,0,1,0,6.25" transform="translate(-1901.876 -10140.696)" fill="#ece6de"/>
</svg>
