<?xml version="1.0" encoding="utf-8"?>
<!-- Generator: Adobe Illustrator 24.0.1, SVG Export Plug-In . SVG Version: 6.00 Build 0)  -->
<svg version="1.1" id="Layer_1" xmlns="http://www.w3.org/2000/svg" xmlns:xlink="http://www.w3.org/1999/xlink" x="0px" y="0px"
	 viewBox="0 0 64 64" style="enable-background:new 0 0 64 64;" xml:space="preserve">
<style type="text/css">
	.st0{fill:none;stroke:#1A1918;stroke-width:1.5;stroke-miterlimit:10;}
	.st1{fill:#1A1918;}
</style>
<g id="Group_116" transform="translate(-811.912 -4416.751)">
	<rect id="Rectangle_127" x="812.7" y="4417.5" class="st0" width="62.5" height="62.5"/>
	<path id="Path_40" class="st1" d="M831.9,4445l-1.3-1.7c0,0,7.5-8.3,10-4.9s2.3,17.8,5.8,12.4s4.1-8.6-0.5-7.7
		c0.2-0.5,0.4-1,0.6-1.6c0.5-1.2,1.2-2.2,2.2-3c2-1.7,5.8-1.7,7.5,0.4c2.3,2.7-0.1,7-1.6,9.4c-5.1,8.1-11,13.9-13.7,11.2
		s-5.5-14.3-6.1-15.3C834.1,4442.6,831.9,4445,831.9,4445"/>
</g>
</svg>
