<svg xmlns="http://www.w3.org/2000/svg" width="34.415" height="22.894"><path data-name="Path 39" d="M11.756 10.735h-.97a5.367 5.367 0 100-10.735H0v22.115h11.756a5.2 5.2 0 005.2-5.2v-.98a5.2 5.2 0 00-5.2-5.2M4.439 4.014H9.42a2.683 2.683 0 110 5.367H4.44zM10.1 18.392H4.439v-5.369H10.1a2.685 2.685 0 010 5.369m24.315-3.909a7.865 7.865 0 10-7.845 8.411 7.891 7.891 0 007.358-5.515h-4.085a4.125 4.125 0 01-3.273 1.672 4.318 4.318 0 01-4.1-3.343h11.85a9 9 0 00.092-1.225M22.864 12.09a4.175 4.175 0 017.405 0zm8.6-10.846H20.8v2.77h10.664z" fill="#ece6de"/></svg>