<svg xmlns="http://www.w3.org/2000/svg" width="64" height="64"><g data-name="Group 115"><path data-name="Rectangle 129" fill="none" stroke="#ece6de" stroke-miterlimit="10" stroke-width="1.5" d="M.75.75h62.5v62.5H.75z"/><path data-name="Path 42" d="M38.425 16.844H25.576a8.742 8.742 0 00-8.732 8.732v12.849a8.742 8.742 0 008.732 8.732h12.849a8.742 8.742 0 008.732-8.732V25.576a8.742 8.742 0 00-8.732-8.732m5.639 21.581a5.645 5.645 0 01-5.639 5.638H25.576a5.645 5.645 0 01-5.639-5.638V25.576a5.647 5.647 0 015.639-5.64h12.849a5.647 5.647 0 015.639 5.64zM32.001 24.962a7.039 7.039 0 107.039 7.039 7.047 7.047 0 00-7.039-7.039m0 10.842a3.8 3.8 0 113.8-3.8 3.808 3.808 0 01-3.8 3.8m7.887-13.9a2.089 2.089 0 102.088 2.089 2.09 2.09 0 00-2.088-2.089" fill="#ece6de"/></g></svg>