<svg xmlns="http://www.w3.org/2000/svg" width="34.415" height="22.894" viewBox="0 0 34.415 22.894">
  <path id="Path_39" data-name="Path 39" d="M2785.336,6181.235h-.97a5.367,5.367,0,1,0,0-10.735H2773.58v22.115h11.756a5.2,5.2,0,0,0,5.2-5.2v-.98a5.2,5.2,0,0,0-5.2-5.2m-7.317-6.721H2783a2.683,2.683,0,1,1,0,5.367h-4.98Zm5.661,14.378h-5.661v-5.369h5.661a2.685,2.685,0,0,1,0,5.369m24.315-3.909a7.865,7.865,0,1,0-7.845,8.411,7.891,7.891,0,0,0,7.358-5.515h-4.085a4.125,4.125,0,0,1-3.273,1.672,4.318,4.318,0,0,1-4.1-3.343H2807.9a9,9,0,0,0,.092-1.225m-11.548-2.393a4.175,4.175,0,0,1,7.405,0Zm8.6-10.846h-10.664v2.77h10.664Z" transform="translate(-2773.58 -6170.5)" fill="#ece6de"/>
</svg>
