<svg xmlns="http://www.w3.org/2000/svg" width="64" height="64" viewBox="0 0 64 64">
  <g id="Group_115" data-name="Group 115" transform="translate(-739.412 -4416.751)">
    <rect id="Rectangle_129" data-name="Rectangle 129" width="62.5" height="62.5" transform="translate(740.162 4417.501)" fill="none" stroke="#ece6de" stroke-miterlimit="10" stroke-width="1.5"/>
    <path id="Path_42" data-name="Path 42" d="M2579.712,6166.791h-12.849a8.742,8.742,0,0,0-8.732,8.732v12.849a8.742,8.742,0,0,0,8.732,8.732h12.849a8.742,8.742,0,0,0,8.732-8.732v-12.849a8.742,8.742,0,0,0-8.732-8.732m5.639,21.581a5.645,5.645,0,0,1-5.639,5.638h-12.849a5.645,5.645,0,0,1-5.639-5.638v-12.849a5.647,5.647,0,0,1,5.639-5.64h12.849a5.647,5.647,0,0,1,5.639,5.64Zm-12.063-13.463a7.039,7.039,0,1,0,7.039,7.039,7.047,7.047,0,0,0-7.039-7.039m0,10.842a3.8,3.8,0,1,1,3.8-3.8,3.808,3.808,0,0,1-3.8,3.8m7.887-13.9a2.089,2.089,0,1,0,2.088,2.089,2.09,2.09,0,0,0-2.088-2.089" transform="translate(-1801.875 -1733.196)" fill="#ece6de"/>
  </g>
</svg>
