<svg id="Layer_1" data-name="Layer 1" xmlns="http://www.w3.org/2000/svg" viewBox="0 0 380 350"><defs><style>.cls-1{fill:#1a1918;}</style></defs><title>iso-con-R</title><path class="cls-1" d="M0,0V350H350V0ZM91,147a56,56,0,1,1,56-56A56,56,0,0,1,91,147Zm168,0a56,56,0,1,1,56-56A56,56,0,0,1,259,147Z"/><path class="cls-1" d="M370,330a10,10,0,1,0,10,10A10,10,0,0,0,370,330Zm0,17.5a7.5,7.5,0,1,1,7.5-7.5A7.5,7.5,0,0,1,370,347.5Zm3.51-5.78a1.77,1.77,0,0,0-1-1.72,2,2,0,0,0,1.27-2,2.2,2.2,0,0,0-.84-1.85,3.6,3.6,0,0,0-2.28-.66h-3.81v8.75h1.72v-3.39h2.13a1.14,1.14,0,0,1,.85.25,1.7,1.7,0,0,1,.31,1l.07.9a2.26,2.26,0,0,0,.34,1.26H374a2.23,2.23,0,0,1-.41-1.26Zm-2.84-2.37h-2.13V337h2q1.41,0,1.41,1.17C372,339,371.54,339.35,370.67,339.35Z"/></svg>