<svg data-name="Layer 1" xmlns="http://www.w3.org/2000/svg" viewBox="0 0 380 350"><path d="M0 0v350h350V0zm91 147a56 56 0 1156-56 56 56 0 01-56 56zm168 0a56 56 0 1156-56 56 56 0 01-56 56zm111 183a10 10 0 1010 10 10 10 0 00-10-10zm0 17.5a7.5 7.5 0 117.5-7.5 7.5 7.5 0 01-7.5 7.5zm3.51-5.78a1.77 1.77 0 00-1-1.72 2 2 0 001.27-2 2.2 2.2 0 00-.84-1.85 3.6 3.6 0 00-2.28-.66h-3.81v8.75h1.72v-3.39h2.13a1.14 1.14 0 01.85.25 1.7 1.7 0 01.31 1l.07.9a2.26 2.26 0 00.34 1.26H374a2.23 2.23 0 01-.41-1.26zm-2.84-2.37h-2.13V337h2q1.41 0 1.41 1.17c.05.83-.41 1.18-1.28 1.18z" fill="#1a1918"/></svg>