<svg xmlns="http://www.w3.org/2000/svg" width="30.313" height="30.313" viewBox="0 0 30.313 30.313">
  <path id="Path_42" data-name="Path 42" d="M2579.712,6166.791h-12.849a8.742,8.742,0,0,0-8.732,8.732v12.849a8.742,8.742,0,0,0,8.732,8.732h12.849a8.742,8.742,0,0,0,8.732-8.732v-12.849a8.742,8.742,0,0,0-8.732-8.732m5.639,21.581a5.645,5.645,0,0,1-5.639,5.638h-12.849a5.645,5.645,0,0,1-5.639-5.638v-12.849a5.647,5.647,0,0,1,5.639-5.64h12.849a5.647,5.647,0,0,1,5.639,5.64Zm-12.063-13.463a7.039,7.039,0,1,0,7.039,7.039,7.047,7.047,0,0,0-7.039-7.039m0,10.842a3.8,3.8,0,1,1,3.8-3.8,3.808,3.808,0,0,1-3.8,3.8m7.887-13.9a2.089,2.089,0,1,0,2.088,2.089,2.09,2.09,0,0,0-2.088-2.089" transform="translate(-2558.131 -6166.791)" fill="#ece6de"/>
</svg>
