<svg xmlns="http://www.w3.org/2000/svg" width="64" height="64"><g data-name="Group 116"><path data-name="Rectangle 127" fill="none" stroke="#ece6de" stroke-miterlimit="10" stroke-width="1.5" d="M.75.75h62.5v62.5H.75z"/><path data-name="Path 40" d="M20.013 28.282l-1.285-1.652s7.543-8.308 10.022-4.85 2.264 17.779 5.783 12.363 4.1-8.558-.473-7.722a15.277 15.277 0 00.566-1.588 8.4 8.4 0 012.153-3.041c1.995-1.679 5.8-1.662 7.548.39 2.266 2.656-.1 6.971-1.593 9.36-5.075 8.117-10.97 13.908-13.678 11.2s-5.485-14.276-6.059-15.331c-.85-1.561-2.984.871-2.984.871" fill="#ece6de"/></g></svg>