<svg height="229.166" width="825.001" xmlns="http://www.w3.org/2000/svg"><g fill="#ece6de"><path d="m218.017 111.008a63.987 63.987 0 0 0 20.317-46.84 64.167 64.167 0 0 0 -64.167-64.165h-174.167v229.167h183.334a64.165 64.165 0 0 0 64.166-64.165 64.112 64.112 0 0 0 -29.483-53.991m-126.35-42.257h48.125a11.458 11.458 0 1 1 0 22.915h-48.125zm68.75 80.207a11.458 11.458 0 0 1 -11.458 11.458h-57.292v-22.915h57.292a11.458 11.458 0 0 1 11.458 11.457"/><path d="m256.667 0h91.667v229.166h-91.667z"/><path d="m357.5 0v73.333h68.75v155.837h91.667v-155.837h68.75v-73.333z"/><path d="m595.834 0v73.333h68.75v155.837h91.667v-155.837h68.75v-73.333z"/></g></svg>