<svg xmlns="http://www.w3.org/2000/svg" width="825.001" height="229.166" viewBox="0 0 825.001 229.166">
  <g id="Grupo_115" data-name="Grupo 115" transform="translate(-127.501 -723.334)">
    <path id="Trazado_30" data-name="Trazado 30" d="M2147.393,2567.538a63.987,63.987,0,0,0,20.317-46.84v0a64.167,64.167,0,0,0-64.167-64.165H1929.376V2685.7H2112.71a64.165,64.165,0,0,0,64.166-64.165v0a64.112,64.112,0,0,0-29.483-53.991m-126.35-42.257h48.125a11.458,11.458,0,1,1,0,22.915h-48.125Zm68.75,80.207a11.458,11.458,0,0,1-11.458,11.458h-57.292v-22.915h57.292a11.458,11.458,0,0,1,11.458,11.457" transform="translate(-1801.875 -1733.196)" fill="#ece6de"/>
    <rect id="Rectángulo_86" data-name="Rectángulo 86" width="91.667" height="229.166" transform="translate(384.168 723.334)" fill="#ece6de"/>
    <path id="Trazado_31" data-name="Trazado 31" d="M2286.876,2456.53v73.333h68.75V2685.7h91.667V2529.863h68.75V2456.53Z" transform="translate(-1801.875 -1733.196)" fill="#ece6de"/>
    <path id="Trazado_32" data-name="Trazado 32" d="M2525.21,2456.53v73.333h68.75V2685.7h91.667V2529.863h68.75V2456.53Z" transform="translate(-1801.875 -1733.196)" fill="#ece6de"/>
  </g>
</svg>
